<mxfile host="Electron" modified="2024-02-15T08:40:02.729Z" agent="Mozilla/5.0 (Windows NT 10.0; Win64; x64) AppleWebKit/537.36 (KHTML, like Gecko) draw.io/21.2.8 Chrome/112.0.5615.165 Electron/24.2.0 Safari/537.36" etag="7FKeREQScOJ2hYwaVPut" version="21.2.8" type="device">
  <diagram name="Page-1" id="2XWkQP5S-hDbL94sL5Vg">
    <mxGraphModel dx="2058" dy="1180" grid="1" gridSize="10" guides="1" tooltips="1" connect="1" arrows="1" fold="1" page="1" pageScale="1" pageWidth="3300" pageHeight="4681" background="#999999" math="0" shadow="0">
      <root>
        <mxCell id="0" />
        <mxCell id="1" parent="0" />
        <mxCell id="APLwThIm-aDqV8bCMrbt-1" value="Flickable and ScrollBar" style="rounded=0;whiteSpace=wrap;html=1;fontSize=25;fillColor=#dae8fc;strokeColor=#6c8ebf;" parent="1" vertex="1">
          <mxGeometry x="1440" y="140" width="420" height="60" as="geometry" />
        </mxCell>
        <mxCell id="jBHk_CoVXCupnnEfYOXA-1" value="" style="shape=image;verticalLabelPosition=bottom;labelBackgroundColor=default;verticalAlign=top;aspect=fixed;imageAspect=0;image=data:image/png,iVBORw0KGgoAAAANSUhEUgAAAZYAAAIOCAYAAACbJSslAAAAAXNSR0IArs4c6QAAAARnQU1BAACxjwv8YQUAAAAJcEhZcwAADsMAAA7DAcdvqGQAADGlSURBVHhe7d0JfBx3ef/xZ1eXZVuWbNmJHSeWfMXxkTsklARykBBIKKTk1fxboEBKOf4t99ECLTctpIFSjoaWK0BJ+AMtlNJQchBacnCEBHKHxGdix7HlQ5J1r7T7/z2zM9Jotcfs7rNr7erzth9pd3Y0x+7q993fXIpt3nJySsJSKZk+QLlhMwfWrggrU0+rW7tq8VWI+d+BNLN3ROzovrfSs5+5DOnB04dPBUupgUIjnYfRmlfxCZy7rxXKUdUmz2RmVV3iWSXSmhcIsWwhkx6UHpYOlhmhkiVQsgZPtRktQYTJHP11nc2q9OzU64uQ/3e2RtXlShVkttaRJnR0n2Nv7pk9k/RA77YKxolt2rxl2q9vKjNRCgZKhN9+owbCaDKGDJaobp8boHjTm60ymEzIbGmqJtISlzmS90ihgAmCJX+g+Lfct4yxqizC3G1GmWWMlniWrXjtvQ71J3fzUQFmM6vqUpct0tLajVQR3pynvnjSd6cvUxAwLlg2Z8mUYID/3X3L3QjkfmSSzSiGanGZZ5MqrfncfYLDv781orYW2GxpI02oes9N5RYn/UPe16kvnliWcIlt3LR56tc3s5eS/u/LvG8twpRtRjFUYG5GC1PddbJSm0uNbKY3HLWg4BJHWqXZtd4Z7XcOlVvmoDcy+XXG/fRtNRksmb2UqbuZ+1im34vSfkQYJZrJhcrNbF4mqvnk2Jhli4M5ZqppKlPBCZnNyUSkpTEaqbTJTA3wbvkhEg4bFTwW27hxU6i5drfS/73b09vxzPuBrAOnsxklotm2PLNJFdeqSrOqz9cp/Ks6C5gtzKxaKxOR1shupIIquTzekHCvJD3AHz75xfsaO8kFi3fP/YpOBoe70djUJAsWzJfmpmZpbmmWhoaGkn+LM/s8NaFqi2wzoxp8hoEZ0k2TBbsp5VWl2Vjyo6B47scmJiZkdHRUxsYSMjQ0JOOJhBuenl649+IHy/RQaWtrk/aOdjl4eECGRxMy4iaSSEz4IwCYiWjPbbY8N7XyGpWwnCVmxaSIs2xqbJR5LU3S6jobS5e0S29vnxzp758RLi5YNk7uXtEbS5cudfNokL09vTKWGE8/ACCCWmm4jobZ8NzUyutT4nKWEy4lzLK5qVFWLFsijQ0x2b+/xx+aDpd4OlS0x5KSRa6noqGy6+kDhArg0V+QqL915X5sRGXV+etTYh6VSjNi19P7ZXwivZUr3UNJb/2KBze0i6Obv7SnAiCgjVExDVIwfmbNdTwH9WpvzyHpaG/3MiToqPg9FpEFCxd4+1ToqQDAHOJnQKk0Mw4c7pP5C+Z79/0eS/qWHv2lO+oBVAKf2DHLaKCUGSqB4dExL0P8LosLFndDb+ohxXr0F4BiBb+hQcEMWxJrwojrlLS0tKTf/S5TYutP3OBup6S7q1se3rrHGymXRW3zpamxwb8XXWJ8QvqPDPn3gLlqrodOCesfhIrZU1cLr0EZyxg1hCvwNGxe1yU7d+10t2LpYNG9+d3dXfLI1qfTY+Tw6Wv/TtauW+vfyy64INmeZw4EvSIZ7D8o73j3+yQeLz6UgPpRC41aJc2G9a+F18BgGQsFTAWehk3rVsnOnbuCw42jz6GjvU02n7Q+b23asM6rS85/trzggnQtW9rpQqYWXlCgUnj/zw5RP9JP+egH/1qefOIh2bP90aylj+k4s4p7u939kx/Lc8452x8wkz5210/+279nZfJw4+gaGuKy68n98pkb7pLPfutO+dy375DP/9vP5J++/z+yY/tuGR48Ij37nvFqaOCI/OvND3hVyEP33uleIH3h0vWxD71PznnWmd5wpfd1eD533n6TvPY1r/DvFZZv/B/++w3ePKspvL6ZdDnDz48lnafOO/O29XyQizZ0xTd2qJ5Xv/KP5ZLLrpCNp52dtZ538WXeOLPNu977Afn8P16bNVx0mD727vd90B9iq6hg0WvMxGINsqNvQHYeOSK7hvrlqdE+2Z3olUQi6ZLKlf8v0NAc7VIwL/s/r5aVa7Z49Tcf+jt/aJre1+FzkTb0b3/z/518bvR5qnbooRoIl9lKr5O4d98+6e8/krV27noyfS1FM8GHjfI+dNz9y1/Jm9727hnhEoSKPqbjVEJRwTKRTHrfl3W2SKx5XPrG+6Vn5KDsG06fzh/L6O3PWzwi85fW2k778l5Ma1s2nyQ7du7y74n88p57ZwQvakG299XseZ9Vx2xZ37nzvN/9Cxcub50Kl2qEiioqWILceHTfbtnRu1d6xw/LsByRsdiANzzlv17B1TMXdAzI/IXpx8qhm4J001Xg+i9+bnKzUHh4QIcFm5X0djBuepguW3r5Vnd3ZUwn+xsuGEcr2+Yz7VWEx9HlC4brPMPLG/758PA3vu41/tDpvvK1G+SM00+dnGam8PoF4wS39bsuQ67lKyTYBJn5M7pOwfDw8x9e11ybGRHI/l6bKep4QHZez8UPl2qEiipyU1jasAuSptaENM1LSGPLmDS58rjkCUJFnbTsBFnXsca/l9/3vv31ycZKG8JctOFav27N5Kah8y663H8kTfePHD7cK1vOPM+7r4+vXHOyVzt2PjltM9IVv3/Z5HTU9V/8rPc9Lb0e2liGN9PpZqlM2osIHtd6wcUX+o+ILF7c4X3X4dd/40a5+lUv9+7rcjzrzNMnf2Zp5xJveDb6uK5zZoOtjfoTW7dPTuPq17/ZfyRNh+my6XP7gY98fHI8nW+UzWmnnrx58md0nYJ563MbDFfhZdL10OEaiMhG31dRwyIYL+r4s9+e7Y9EKlRAxhalSkoHi+7GL2KmXqC4amrRCgWLe/+HJ7Nu8Vqvogg33toY5qINrDbQ2QSN9u9fOdXQaaO3Z/uDXp1x+in+0LRPf+6f/VsuVL7xLW/aYRpwGgzh0NP72YJPAy0YJ0xD7urXv8W7/cObbvauqaO00f6PH/7Iu60+9ol/8G9llw7ILfKRD7x3MhS0x5UZJoFguK6/bkoLN/Q6X51/IeHn8ZbbfirnPefZ3u1wT0aXIazQemBuW7lmU6SCnfDmr2z7XMxo4+8FQKq4HksgHSrpQGnW783pYAmubpmWkrFEQoaHR/z7laeNdrqhS3/C00Z1asf3yXLfb7IdoRZ8Gkx5IRDcDtZDhwWBF1Rm8GmoHDh4aPLxqML7TqbL/QlVex4XPO9c/17pdHmLtefpvV6o6PyDdc29Dihe5us+9bsElCJzn4q3WayS4eIrLljc+350dFjOWbpWzlq8Xs5YdKKctmCjnNK62RueHiX9y6EZk0wmJ3f4W9FNP0HPJNOnP/cFuefe38idt/+XP0Skt6/Pv5Wa0WPRTWFpMS+A7n/wYXd76pc4CJAom4200VW5x53eaGjDHl6Pv3nPO/xb08fT6YU3NWmvIQhAbdTT+z4yG6Qp2lPRsA1PQ9f7zrt/4d/LLVgX7aHppjDtcalg/jo8s8eCcmW+loTK0aZ/NXHJ4sX+vZmWLz/WG2e2ybWjvhrhUlSwaEZs3HCCvOHCi+UN579AXvfcF8mfPfcl8tpzXyonbThe5s9fIMccs0yWdC5xvZgmL1ji8dyNXil0E482bMGmmPDOY/2l1M1Ohw/3eY899PBjXi8mGDdbjyXYTKaNdLajrV77xrd6AZB9fmm6aSkYJ8omJhVsqgqmm6sHocukoReMp5vrgk1UunlM95ek1yH3TnndzKib0IJp6PJG2Qei66Lj66ZA3fyoQavLowcT6PCv/PNn6LFUhO3vzOxSe+v29W9+S35224/cez77CZK/uuMn3jiziV4B5dq/+/CMUAkE4fLJj3/EH2Irtm79id6pkt3d3fLItvyXdHnbm98op582/VN/WDwe90rTO3ym/QP3PyTXfvqzEm9o9IdEEX4DRvnUlu0Nm/lz+d7UlfhkmDm/YtejmPErsfw4uur1NZ0N61XLz220ZddwmXHFkwo2F5vW6iVddnrzKCpYvBMgXS+k2GXSdYm5wInFiukghRtYVWiumeOrzJ/JNk5YtnkEP1PKKxFlmTKFfybKPMtZPtSOenp9Z8u61OpzWsZyV7C5CAdLUZvCNBi019FQZOnPFBcqxcrWgKvw8Fzj5FPuz88VPDeVx3OM2Svz3VnJ1t5Yrl8sy1+4QtPKfFzvB5Up17RyDT9a8q1DFMHPlTMNRMPzi9nF+63P8qtfhWDJMteqKnX+uX4mmF7m48XMI+q4UcbTPm05/drgZ0uZRrbl02G5CkBdyfFrXeFgCc+1mIYl17iZw4uZZlQ6zVKnW8zP5Ro3MyjKWZ6oMudXKZVeDwB5ZTYvFVLlTWFRGpaojc9sbaSKWa5842a++sU8L+U+N1F+vtR5lLtsqH2z5T3Ae7FS4npEWGUCLNeLVu6LqT8/298QunzBR4OgcilmXSo1bjb5ft5i2pmFwjLfR7X8HPKa1yPvHeq+VKjHUuhNk+vxenqzFbMuVuNmPlbu8xn+eb0dFI6OzNcjU629NryX6lUFgqXUN0s9vsmCdYqybpnj5PuZYp6rcsfVYcVMo1TVmEc9yPc85esZA9VjHCzFNA7hceu5USn2OQmqkMxx8v1MeLr5xkNtyHwNNVAIFRRWrVYgtm7deu+k/9Xd3XLrrbemhwIAUIRLLrlEduzc6YVWlY8KAwDUO4IFAGCKYAEAmCJYAACmCBYAgCmCBQBgimABAJiKp0+r4gQrAEDpvKtO+teepMcCADBFsAAATBEsAABTBAsAwBTBAgAwRbAAAEwRLAAAUwQLAMAUwQIAMEWwAABMecGif5uYC7oAAMoR5Ag9FgCAKYIFAGCKYAEAmCJYAACmCBYAgCmCBQBgimABAJgiWAAApggWAIApggUAYCruXc9FT8Tnmi4AgFJ5GaJZkqLHAgCwRbAAAEwRLAAAUwQLAMAUwQIAMEWwAABMESwAAFMECwDAFMECADBFsAAATBEsAABT8eDyLgAAlEUvFea+0WMBAJgiWAAApggWAIApggUAYIpgAQCYIlgAAKYIFgCAKYIFAGCKYAEAmCJYAACmXLBwPRcAQPnSaZKixwIAsEWwAABMESwAAFMECwDAFMECADBFsAAATBEsAABTBAsAwBTBAgAwRbAAAEwRLAAAU3G9uEvK/wcAQCnSGeIFCj0WAIAtggUAYIpgAQCYIlgAAKYIFgCAKYIFAGCKYAEAmCJYAACmCBYAgCmCBQBgKu5dyIWruQAAypRKX9GFHgsAwBbBAgAwRbAAAEzFVq9Zm9INY6vXrJaf/OQ2fzAAANE9//kXy/btOyQWi9FjAQDYIlgAAKYIFgCAKYIFAGCKYAEAmCJYAACmCBYAgCkXLKn0pcK4XhgAoFSTGZKixwIAsEWwAABMESwAAFMECwDAFMECADBFsAAATBEsAABTBAsAwBTBAgAwRbAAAEwRLAAAUwQLAMAUwQIAMEWwAABMESwAAFMECwDAFMECADBFsAAATBEsAABTBAsAwBTBAgAwRbAAAEzFJeW+prwv3gAAAIrnMkSzxP2nxwIAMEWwAABMESwAAFMECwDAFMECADBFsAAATBEsAABTBAsAwBTBAgAwRbAAAEzFuZALAMCKZgo9FgCAKYIFAGCKYAEAmCJYAACmCBYAgCmCBQBgimABAJgiWAAApggWAIApggUAYMoFS8r/BwBAaTRD0jmSoscCALBFsAAATBEsAABTBAsAwBTBAgAwRbAAAEwRLAAAUwQLAMAUwQIAMEWwAABMESwAAFPxyYuEcbEwAECpvAxxX9x/eiwAAFMECwDAFMECADBFsAAATBEsAABTBAsAwBTBAgAwRbAAAEwRLAAAUwQLAMBUPDgLHwCAcmmc0GMBAJgiWAAApggWAIApggUAYIpgAQCYIlgAAKYIFgCAKYIFAGCKYAEAmCJYUFjM1TtdfdXV9a7OdQUAORAs9ayxhGpwlUnfJZe6utrVa1w9yxVQDH0PBe8x/aCCuuYFS/pSYVwwrK78gateV0NF1KCrn7pa4Aqwst7VE670PXbE1T+4Ql1K+TFCj6WezXfVVEQ1u1riCrD0DldrXOl7bJ4rfZ+hrhEsc4F+itDeyECE6nGF+qGbns5z9QVXf6YDquwUV3+cvom5g2CZC3a6Ot1Ve4S6yJWGEGqf7sv4F1c/c/VGV4tdVZO2Ln/lSt9XmFMIlrnigKtkhGJXW31Z6irYWV7tnebPcXVF+qZM+N8xJxAsAOwtdHWNK93Pt8vVN1xhziBYANh7qyvtsWgP+Iuuhl1hziBYUHm6jf18V69y9TpXL3K10lVU+i7NdQ6Ebup5vis9x+b3XXW5ykcPpT7b1ctdvd7VC1yVs++hkuumn/bPcaU7v3XHuy5rh6tCdFp6BJY+N2EtrvSorPCRgJVoAc509e70Te/w9c+6Snj3MEcQLKicE139pys90ux/XH3dlX56/ZGrp1w94OqFrvJt+9cTNnUzip7/oAcVBEc2dbvSaT/t6jZXelUAvb/Dv7/ZVZhumvmMq72ufunqBle6Y/tmV/tc6RUFijnUupLrpmGly/qMq1+4utHVl1wFy/qvrjJDI3Cqq/2udJq6HC92FfiQKz23SR/T0v1uQQBY0TD8lCtdBz3K8K/97+OuMGcQLKiMP3d1vyvtRegn40za4J7s6iZXH3eV7Yz/wDGugvMfjnOlR67d4SrbtHW62oPRRlgbWXW8q1tdvcVVmw7IoNPQKwrosuRqsMMqtW56WwPrf13lWlYd75WudP1y9Yy0ZxJU+Ddcb4cfW+Sq1ZWlN7t6Xvqm/LMrDUbMOQQL7L3dlW7+0AZT6c7bT7jShvhiV3/jSs/EVvoO/EtX2iBFoY2vnpOhAfMDV692daEr/flwI6aN7nWulrvS3syzXWmvQD/5v8zVZa50OXa7Cug4uiz5VHrdtCelgbjN1d+60l6P9jo0oLQHEzjD1cdcZf4Ga+9AQ/duv7SHE3jSVTBcS8cLP14u3SSoPRQN1t+40uXH3NTV3Z1a1dWduvDCC1MpSVH1Un/gKulKbXe1xFW28aJUg6tbXAXe5irbeFoXuRpwpXT+X3XV4SpzvAWuvuQqcMDVBleZ42XOW6et9XpXMVfhcZtcfdxVIOHqxvTN1NOuznUVHl9ruas7XAV2u1rhKnM8rUqv2zOudLpfd7XIVeb4x7u621Wg19VmV5njBdXs6geuAn/lKtt4FnWcq0ddqX5Xz3EVfvyTrgL/5Cr8GFUXpRmiWaKZQo9lLtBP7d9zpTtS89XXXB3rqlS6fV0/RQfXGtN9EHpinm7Xz6S9B/00/6B3T6TT1Z+kb+al09Yei+7PyDznRncQf9LV49699E5s3fE95uq1ru5ylUl7AfrJOtgHoM9VsAktrBrrps/9La7e4KpfB2TQ3pVOd8S7l96PoRcHzSVzh3mlzlHSzXOfc3WSdy+9j0V7RJizCJa5QLej62aKCwqUbs7RBrRUuu8juPKx7kDWRlAb9VwOu9IGKaCbfQrNXzfd6CauXA66+n/pm5Nud6U79HPRRjAII90fopchyVSNddMd6u93FQRHNr9y9fP0TY8egXW06f4gveip+okrDXfMaQQLppR7SOhLXGkvQellRIJ9Dfn81lXQkOqFClekb+Z0nyvdV5CP9hSCT+f6XY+iyrdu2sPQfSUB3X+TqRrrdo8r3TeRj4aZHjgQ0P0y+Q4OqDQ9BPqDrnS/ir4u2tvS5xNzGsEyF+xxpedX6JFK4dqSUXo0T6FGOxf9NH5W+qZHD+mN0uBpg687nJVuZtKGMp+trgpdHkR7NcGmLW2IdUd4Pjo97ekEMnsW1Vo3vaZblMNy9ZDpgB5GHQRetW10pQdG6DJogOrRcoWea8wJBMtcoI2rNoYPZdTDGaWbg0q9ppMeGqv7JwK6SUf3X+i5EvlK9+3oPgiljbU2UvmEj+LKJXzehP4NkChXbNZlCWRe1r1a66ahGUU4WPRwZ+0tVJuGpJ5fo0ffaa9Q9z/p4dWAQ7DAhn6q13MjAnqOhDaqhUrPJA8aRn03FjqvIt9+jYBeTDOgARNlE1++nkK11i3qZU9GXVVqR3wUuh56Qulp3j2Rb7sq9Me7wuF3NIIQVUWwwIZ+Ig+/m3STWmYPqVDpjmn9pD/b1PO6leI9rvQ8IKVhqGGvl8fXM/uzlfZm9OCRgF6mJnhMp1VoEyFqDsECG0EDo7THoCfKZe7TKVR6guJsPEy1ntetWNrb0JMzA9p70euk6Q78XKXPV/joNf354LEPuFrtCnWFYIENbXx1f4bSd1WhI6BqST2vWynCmxqBLAgW2OhzpQcABHT7e71sS6/ndSuW7tvR/Sl6NemopYcg6yHaAe256ZWgg8eCc4hQNwgW2NCjyfTaUwE9vFkPYa4Htbxu4Z38hY5Ki0ovkqlXaYhaepWEX7sK6Pk9X3alj+k5RnoyKepKPP3GO5qHmKBu/Lur4HwQ/RsnH3GV7eq/2ehVfTMP851NanHd9Nc6fOFK/VMDQIWkU8R9df/pscwVevirvtq6CadQlUrPwwj/CdqXuvquq/A5IJn0elcfdvWPrgodjns01eq6bfe/Kz0BVv+EAFBhBMtcoEfd6B+e0mtR6cmD+UovqqiHgJZKG1I9tFZpSGkDrJdY0TO09UKQenTUuf7tf3OlJzzWypFBtbhuugkvuMSK/nVNvcil7t+4wpX+vZS3uQKMESxzhX5i1hP9CpWe/Bc+GbBYuqNbr6sV3lmrfzxLd9TqdnW9gOKd/u0rXQXb/fUvQUa5nEk15NoyPBvXLdeyBvSKC7oZL6CXYdF9Ht93pTvOtVcFGCNY6pUeHnvIlZ6lXUzp5dqzXQpep6ePa68m2yXdw/RaXfpHr/RP7er1r3I1ftrYakN8lSu9mGGuixfqCYl6yK827FF29Opy6mVP9Lv+ed4odJl1vXT98v3xq6O9bkp7nnqZGv25fMuq9NBgvYaXXso+86oFekWCKFcysKDLGfSYw9dlQ12KdXV16x9pkbVr1sjtP9Xri6NuRN25nEmPgso8V0E/ggQXXsz2eC66yUg3wegnZd0foTuxtWHRbf+/cxXlSrg67+AjkM670Kd0pcuq89Zx9WcK0XHD6xdlHkdr3VSwfvo6RH0t9G/6r3elV1rWENWrJEe59pqFUt8/qBkXXniRbN++3b0t3T+CBQBQrnCwBJ+VAAAwQbAAAEwRLAAAUwQLAMBUOlhS0Q9GAQAgKz9I6LEAAEwRLAAAUwQLAMAUwQIAMEWwAABMESwAAFMECwDAFMECADBFsAAATBEsAABTBAsAwFSca4QBAKxoptBjAQCYIlgAAKYIFgCAKYIFAGCKYAEAmCJYAACmCBYAgCmCBQBgimABAJgiWAAAplywpLxT8AEAKEeQJfRYAACmCBYAgCmCBQBgimABAJgiWAAApggWAIApggUAYIpgAQCYIlgAAKYIFgCAKT9YUlPn4gMAUBINkhQ9FgCALYIFAGCKYAEAmCJYAACmCBYAgCmCBQBgimABAJgiWAAApggWAIApggUAYIpgAQCYIlgAAOULrjfpvhMsAABTBAsAwBTBAgAwRbAAAEwRLAAAUwQLAMAUwQIAMEWwAABMESwAAFMECwDAVNw7DT84FR8AgFL5WUKPBQBgimABAJgiWAAApggWAIApggUAYIpgAQCYIlgAAKYIFgCAKYIFAGCKYAEAmCJYAACm4lwmDABgRTOFHgsAwBTBAgAwRbAAAEwRLAAAUwQLAMAUwQIAMEWwAABMESwAAFOxE1Z1pSSVkrVr18rLP9XnDwYAILob39ku27Ztc6kSo8cCALBFsAAADExdIIxgAQCYIlgAAKYIFgCAKYIFAGCKYAEAmCJYAACmCBYAgCmCBQBgimABAJgiWAAApggWAICpULBMXecFAIDSpOixAABsESwAAFMECwDAFMECADBFsAAATBEsAABTBAsAwBTBAgAwRbAAAEwRLAAAUy5YUt7FXLigCwCgVOkcSScJPRYAgCmCBQBgimABAJgiWAAApggWAIApggUAYIpgAQCYIlgAAKYIFgCAKYIFAGCKYAEAmPKDhSuFAQAMuDihxwIAMEWwAABMESwAAFMECwDAFMECADBFsAAATBEsAABTBAsAwBTBAgAwRbAAAEzF01dziXl3AAAoi4sTeiwAAFMECwDAFMECADBFsAAATBEsAABTBAsAwBTBAgAwRbAAAEwRLAAAUwQLAMCUHyzedV0AACgbPRYAgCmCBQBgimABAJgiWAAApggWAIApggUAYIpgAQCYIlgAAKYIFgCAKYIFAGCKYAEAmCJYAAA29LKTrggWAIApggUAYIpgAQCYIlgAAKYIFgCAKYIFAGCKYAEAmCJYAACmCBYAgCmCBQBgKh0seho+AAAG6LEAAEwRLAAAUwQLAMAUwYII2mXFse+V87s+6OqdsmXhEn84AMxEsNStuMRiDRIvumL+z4fE2qSj7VI5sfMlrl4q3fMX8cZBSKz495r7GdSv2AknrEo5snbdWnnFp/r9wah1rR0flpd0v0AWxoqJgAkZG/yq/Hjrl6Un6Q9SseNl49pvynmL2tydQdm7+1Xyo/07JTwK5q75HR9177WLZUHU91rqiBw88H758e6fy4g/CLXvhncukm1bt7kPGTE+eNarlDRKY7zZfTpsLKJapLlxAW8KFCEuDY0d0lzMey3eLq0NTf7Pox7RhswJEzKRHJJEwRqQkcQgPZF6ElsgbQtfKKetulaeu3RVBX7hG6SxYYH7qlKSnDgkQ4mevDU4tkv6EqPeT6A+sSmsTs3r+Fu5cs0LZb67nRq7SX76xCdkx+hIhHNhkzPHYVNYjTpWVnddJxd0drv+65Ds2/Ma+a9924xft1Y59rjr5fLl61249Mue3a+TW/ZvlXH/UcwdbAqbc8ZkbHzINSgaGoUK9aSxscOFiqrUzvJGN49WvyEZl7FEH6ECggVAOZqlpWGeH1vDMjrBJi4QLADKEZsnzQ3N6dupERlL0l8BwYIqiDcsl86F58maJVfKpqWXyepFp8mSpvlFvPnikj7/IfPsh5g0NK6SZW0XyLrOl8ja9jOks7kt73Rj8aXSseBs6VryB25ZLnfLslnayjhCqXLrFizrs6Rr8UvlJG9ZN7llTW/Yyi04p6RJGhsXSVNo42Ys3iqN8elHaJW/gcwFi5umJzXkeiwEC9x7jZ339Wn6zvvvy82Pfkyemkg/VrSSdt7HpKnlAjn1+L+QTYu6pWXGiZcJGRn+X3lozz/Kg/17c2+Xj62QdV3/JOd2rJCGWL/seep1cuuBJyXWfJ6cdsI7ZMuiLmmeNukRGTjyPbnnqetk68iwP8yJr5X1x71bzuw80zXOGc1+qlcOHPqC3Lnne9IzHmXXdmXXLdmwXk5c8U45I8eyHjz8Jblr93dkX5ZlbWj9U7n8xNfK0nj652Kx5lDITUgyNTEVNcnD8swz75Kb9z3iHilR/FQ5e8O/yKmtLpwnfil3PfYmeWSUwzrmInbeo8Lmy5Jl18iVG6+V09tXZ2l4VZPMa71Yzlp3o1y+8hxpzfnRuUGaGpd450k0xFqlqelY6Wh7jVyy4Vo5oz0zVNQ8Wdj2cjl//cdlc6vGqmv7ms6Tc9Z/Wc4/5lkzG2oV65Clne+Ry9b+uRzXmHNBfBVct8Z2aW25RM478St5l7VzybvkReveLqua0gf5ZorF5rnp6TTDoaK0J5Me7lVDh7SU2wLoprC4vxzJARlNcvgH3Dutvb39Q3pjyZIlcsql7HirF43zni+bFq9zTZwz8ZhsO/Az6S/1dz62SJYteZmsamlxdxIy0P99eWKwN8cRZPOl85hr5EXHny8L4+kWdWLsXtna8215cN9X5IGDd0nPaK/rcayW9kZduhZZsPBc6Zz4uewYPDSzF5Q575F+OeaYP5Gu5gk53PddeeCZ6+X+npvkqaGnZaKxWxY3t3qbd2INXbJ8/ojs7h+WtV1/L2e2dUgs+ZTsOfhtuf+Zr8jDB++QfSNHpGneWteAa8MYk4bmTdIpv5VtR/bm+ARf4XUbPiidx/6FnDR/oSRG73Gv2Y1uWb8uDx/+pRwcG5WWltWywAsbt6xNG+XYxsdle99O95NTYg0rpLO1Q5Lj+2UwsU8SsWOktUGXNSmJsSfkwMhub7hXY3ukb+gueXLoUOlHAzZulPXLLpHFbh6piQfkiYN3S79b0ZxZirr14C0tcvjQYa/HwqawOjV9U9h/yM2PfVSeKnXzd+RNYTGZ1/Y298n/ldLpfRIekkMHPyX/s/s/5eBExtjx1bL++Gvk3KVr0+E3/nO56/G3yyMj4WbSmTZv15Anh91c9sv23X8pdx7YOq1RFdeIHr/iGrlo+SmuSXdSe+XJ3r2yfPEZ0pj4hdy7431y/0DftEY03nS2nLH6Gjl94SLvfipxi9z+2PtkeyKzqa30uiVlNNHvemTN0nfoU3L7Uz+QQxPTlyHedK6cteZjcuqC9LLKxL3yi9/9hTyYOd1AbKVsWPMNeV57h7sz7J3HctO+raVv9soi1nyFXHrS++UE3c2SGpNE0i1LrME9WylJ6km3Ewekd/AeefLwTbK1/3EZKTnBMNuxKWyOiTU+2zVIX5QXr89XX5AXdl0txzWV8ZaIb5CNx73Mb3iTMtT3Kbntyf+Y2fCq5A55Ys+18tjwWPp+4+myYclJ6YY4j4Z4g/T2fEzuygwVldovu/d/SbaP+gkaWyGrXKg0p3bJ73b9tfw2I1RUMvEreeiZ2yZ7c7HGzbKyNR1i01R83eLS0tQuY/2f86abGSoqmbhLfrPn+3IomGXDRuledELuX+LUeEb4p0rvmeQQa2iX5mABYs3S1LBAmuLzpDHeKs2NnbKgZYOsXPJK+b21N8orTv66nNd5ovjHkKGOldGKoGbEl8vShWfKirZ8dbac0H6GLCpjG8a8tqtkw/z0fg39lH7f7pukL19LNnGfPNJzj38hwnnSsehc6Sj0jkzcLQ/23C9+kz3T+H3yu0OPh3aYp2TkyI3y4JFe//5MI4P/LbtG/ZiKLZbFrctm/GJUZd0mHpSHn/4v6c2SVYHE4A/ld4MD/r1WaZvfne6dHSXx2ISMJQ7JyLheqmW39I3slL7RvTI0MSzJVPgJcp9iG7fIxq6vyktWPV8Wsq2srhEsmJRKJcr4RLtIlrWf5TcYKRkauEmeDBrrnCZkaOhRGfQb0saWk2VpgR7TyPAdsjeRb2POiAwM7w4Fz2F55tDP8odAcp/0jgVHkDW7nkNwtnqgOus2NvRj2TY85N/LIbVPDg4f8HsiMWlq6pSmo9hIjw/dKDc/fIn86wMvlBsfeql855Er5TsPv1huuP95cv39F8mNj71L7u3dJqOTz3+rLF76frnw2M0Fe6eoXQTLHJBK/Ex+ufWV8m+PXjW9Hple//74J2R7Is/H5XziJ8ix85e5pk71yeHB3TJesMGLSyzVK8PBLONLpa0x3+fvCRkd3R1qpLIbH98vY8E4qQPSO3rEv5NDash94g6CJS4N8RZ/PXxVWbekjLpP/IX3QSRkNNE3uZ8kHl94lBvoXJcBSkoy2S+DQz+V+7b/kXzn8c/IU5PvrTZZvuxPZXVL9qPaUPsIlrkgdcg1ho/K4eFt02sko0b3y4x91lE1LJdFTUETt0iWL/+8XHXy7fInp+Sr2+SPTnyTHDfZPdCzuPOdADgqI2O9Ba9FlUwemVqP5EE5Ml7oaMdRGXXBEjR7eoLhtNyo0roNu+e/8PEV4y5Yeqd2wMea3PL6t2etpIwM3iB37v5vORK8Lk1nyYntXTRAdYrXdU4oNS2ii8UWSfNkC+c+9TcsknmN7YWrYd7Um1DPFneNem4pSaYiHNoW3rafGpOJadv6s0ulcm9eq866JWUiGW1TpG6yLLFfeRRNyEDvl+SBgaD3uFAWt232jlpE/SFYYMO7jIh/WzfXjO2a2UMqVIMPyaHxfPtPjpJ6Xrdq0p7z5P4hkcamY8s/QROzEi8rTKSSg6HNaIdkz9Nvke9n7tMpVL/7S3lgsMD+kKOgntetuoblSOjAini8I8uVE1APCBbYSPXLaHJq5+yCppYqbICrknpet6pqknnNnZNH3CUnDstY7W3TQwQEC2xM7JB9w8En8nmysLXbfa0T9bxuVbVI2luX+8GSkrHEbhkmoesSwQIbqQPSMxBctyouC9r/UNa21sk51jW8blPn2jdIQzx0MMFR0DDvfFm/cLF/74gc6n/YP4EU9YZggZEx6e29SfYFB201nCmnrLhU2iJtQ49LU8uaWXw2dq2u27CMJAb9aGmU1pZlGSd+VlF8tWxY+QY53r96dCpxjzzR/3QNHt2GKAiWOaFJmhv1j0/pL3WUKk1y9Fa5/9AT/rkYcZnf8V65fM1rZEVT7uYs1rBauldcI5eecLEsmsXvxtpct2EZHD3on/PilnnhxeVdCy5TbKWsO/6j8nvLzpE2/++/zBSTxubnyplrPi/Pbl/iv7t65el9X5ad7GCpWwTLHBBrvkwu2HirvPq0O+XqQnXqLfLi5RuktHOi++XpvZ+QBweDy5K0SFv7m+Wyjd+US7veIqd0XiQrF2yUZQvPke7Oq+U5a74mf3Tyd+SSFRfJsc3t/s/MVrW4bgkZGPi1BNceizW/UJ67/ho5a+mFsqrjCjlj1TVywTGbSnytVbO0zr9AtpxwnVy15bty+er3yFnHXiFr2s+Rle0vkI3L3yrPdc/DVZs+LWcsWu7PZ0z6Dv293NETvp4b6g3BUsem9ovGJe5dcTZCNSyUpnJO5Z74rdy7/Z3ym4HDk/OPN66XVZ2vlnO6rpXLNnxTrjjxOrmk602yueNkWeh90h2XkURP6Wf9V0sNrlti8Lvy2949/ianmDTPu0hOX/VJuXTN++XMpedJR+mpMk28sVuOW/yHcvrK98vz114nl639uJx33KvkpI4tsiA4CSh1wIXzO+WmXTdPnYGPukSw1KtkrwyPj8iEd+Z5ETVxSIYmMi+wmJJUasg1jmMynjwsI1ku6R6WSvxKfv3EVfKDXd+WvWNDubejpwblyMBNcu+OV8h3t35NerKOqNfG2i8jSTfviR4ZLjBvT6pPBhJH3PoMy8jYIX+nez4pGR9/xq23W//kQRnIcwmYo75uTnJivwzqa5sclOFEf+gDRDY9suPJN8nt+34jQ5lXIEiNyHi0WWaXekZ293xLtg/luxSNe+8ke6Tn8HVyy6NXyo/23i2D5cwTNYE/9FW3XC8lVtrnhlRqPEtjpWef6ydPDRm98GDU1qFRmpvXSue842R+U6e0xMZkbPywDI7tkN6RvTKcjHI2uq5LeN6FxCTm1j39E278CJd0KX4e6mismwqtX+TXIi6NjctkYUu3dDR3uHTqkSNDj8nhRJ5wjMxNu+l4aW9eKq2NS6S1abE0xzQ0e2RgdKscGtGLgkZbM9Su8B/6IlgAAGXzgmWbCxb3j01hAABTBAsAwBTBAgAwRbAAAEwRLAAAUwQLAMAUwQIAMEWwAABMESwAAFMECwDAFMECALDhXxKOYAEAmCJYAACmCBYAgCmCBQBgimABAJgiWAAApggWAIApggUAYIpgAQCYIlgAAKbSwRLzvgIAUDZ6LAAAUwQLAMAUwQIAMEWwAABMESwAAFMECwDAFMECADBFsAAATBEsAABTBAsAwBTBAgAwRbAAAGz4150kWAAApggWAIApggUAYIpgAQCYIlgAAKYIFgCAKYIFAGCKYAEAmCJYAACmCBYAgCmCBQBgimABAJgiWAAApggWAIApggUAYIpgAQCYIlgAAKYIFgCAKYIFAGCKYAEAmCJYAACmCBYAgCmCBQBgimABAJgiWAAApggWAIApggUAYIpgAQCYIlgAAKYIFgCAKYIFAGCKYAEAmCJYAACm4hLzbwEAYIAeCwDAFMECADBFsAAATBEsAABTBAsAwJQfLDEODgMAlM+FCT0WAEDZtHMSdFG8YNGb4xMTMtRHzgAAiqPZMT4+4d/zgiWdMKMjo3Jod4N3GwCAqDQ7RkZH/HsxiadjxQXLmAYLPRYAQHE0O8ZGx7zbminpJHG3Bo4MyMO3NcuRHsIFABCNZoZmx8DAQLABzAWLfyORSEjP/kPy6x/MSw8AAKAAzQzNDs0Qj8uUhvaOxR9K3xNvG9n4kQXSt3eeLF01IS0LUv4jAABM0Z7K3Te2ytb7xuTgwYPesFjMpYqr2Kqu7pSk3H/95+dIe/siWXbMEtlycUKWrJyQJSckZX57Mv0gAGBO0qO/Dj3lak+DPHRbk9dT6e/rTz+omeJ9CYIlCJVQwDQ1NUrbwjZpbmmWeS3zpKEh7h7RcfRL2IwBMxQew4k0UhQ2EzKZSnVX3MTsehlm13Njx9/+PBsYLcosWiNfgSWadettMyXtMNjImJC7q0P0kOLR0REZHRvz9qkkEuPePCcDxb8d6+ruTjne77B+13/p/xowU7fD38O8YYVEGsVmOlHYzSv/SEaLW931rqZZtjg1R3/Ta4jX+FiIMJnCo1RzWWzm5W1mslDKMru73rBQeATD0pu/gmH+4+lg0Z90zU4oSHKFivc9xP/h8kWYTOa8szJbnOrMK9J8ojCaTBRmy4yjzmsMZpMIixNtiQuMZbTaZs9fpPWONFJBpUzH+xnvf/i7+xoepveD4d3dq102aFPhGgv97912wsP0X3qg9z/MHzu/SKPMrulEEWlehRgtS5QJVXFWdcnk9Xa8X75aYrS40SYTYawqPX1mr1OkVbJZ74pNx7vrhrrv3mOT38PD0re9e16w6K+M/s5khEnwPbP3EuYNsxBhMpHmZbY41ZlXNZ+/aApPyGxWs0k1V8r75Zsd7BbFaEpmkzGYUIRJmMxHWc2rUsusoeF9c1+9//rFn5J/P/xYrHu19lj0UdfEZQRI9t5LhvQP5+VPpXwRJhNpXmaLU2BCRvOJwuw5jqKKsypsVi2MIe9Xdnao4qL4TVX5DCZTzWWJNK8qTidzJO+e++JNXwNl8vb0Yd69WEz+P+Fnsowyct3ZAAAAAElFTkSuQmCC;" vertex="1" parent="1">
          <mxGeometry x="1447" y="230" width="406" height="526" as="geometry" />
        </mxCell>
      </root>
    </mxGraphModel>
  </diagram>
</mxfile>
